<?xml version="1.0" encoding="UTF-8"?>
<svg version="1.1" xmlns="http://www.w3.org/2000/svg" width="750" height="470">
<path d="M0 0 C2.79329261 3.42212098 4.72545667 7.17057322 6.68002605 11.10557652 C7.04142281 11.82516355 7.40281956 12.54475058 7.77516773 13.28614327 C8.99028383 15.70804627 10.19966309 18.13276864 11.40910339 20.55751038 C12.28581242 22.30790911 13.16286897 24.05813383 14.04024392 25.80819887 C16.4542187 30.62583184 18.86316984 35.44596182 21.27131069 40.26651299 C23.86760903 45.4615702 26.46848971 50.65433261 29.06877136 55.84739685 C34.16326954 66.02362637 39.25336746 76.20205076 44.34182402 86.38130242 C48.47567975 94.65079464 52.61094394 102.91958103 56.74721718 111.1878643 C57.62917235 112.95088186 57.62917235 112.95088186 58.52894479 114.74951593 C59.42385929 116.53843698 60.31877379 118.32735802 61.21369169 120.11627737 C69.53485327 136.75016993 77.85437588 153.3848814 86.17049694 170.02129459 C86.64084943 170.96223414 86.64084943 170.96223414 87.12070399 171.92218257 C88.71005275 175.10168588 90.29938551 178.28119718 91.88871189 181.46071167 C92.20436808 182.09219513 92.52002427 182.7236786 92.8452458 183.37429793 C93.48357853 184.65131003 94.1219105 185.92832251 94.76024173 187.20533537 C104.69808839 207.08638879 114.64125197 226.96477489 124.58862305 246.84106445 C135.75937978 269.16188029 146.92615509 291.48468134 158.08702451 313.81044286 C163.9986758 325.63566191 169.91210454 337.45998415 175.83016014 349.28199959 C180.8668756 359.34355553 185.8994308 369.40717856 190.92653533 379.47354013 C193.49358959 384.6135641 196.06260072 389.7525857 198.63678741 394.8890419 C200.99000275 399.58470425 203.33773149 404.28306572 205.68098823 408.98370522 C206.53276303 410.68992685 207.38659561 412.39512297 208.24261346 414.09921981 C209.39976484 416.40352751 210.54956898 418.71135198 211.69749737 421.02026463 C212.03676106 421.69148266 212.37602475 422.3627007 212.72556916 423.05425867 C214.13664753 425.91018611 215 427.76787511 215 431 C207.73140735 431.07029135 200.46289095 431.12320461 193.19402409 431.15543652 C189.81676023 431.17092607 186.43990983 431.19354235 183.06274414 431.22631836 C154.14521026 431.49968152 125.70614507 428.8792756 103 409 C102.31679688 408.45859375 101.63359375 407.9171875 100.9296875 407.359375 C93.2570237 401.11621891 88.61288131 393.47804142 84.29026794 384.67137146 C83.58037744 383.23834452 82.87042948 381.80534604 82.160429 380.37237358 C81.80094004 379.64425933 81.44145109 378.91614507 81.07106853 378.16596675 C79.40663115 374.80006071 77.72557558 371.44250898 76.04554749 368.08436584 C75.3643632 366.72079534 74.68328428 365.35717219 74.00230408 363.99349976 C65.5016144 346.97318904 56.99841428 329.95413347 48.49379826 312.93578434 C43.79092955 303.5248666 39.08882808 294.11356688 34.38842773 284.70141602 C30.26788596 276.45038849 26.14595429 268.20005711 22.02232927 259.95057005 C19.84441723 255.5934412 17.6672138 251.23596148 15.49168587 246.87764168 C13.4536663 242.7948483 11.41380055 238.7129829 9.37247467 234.63184166 C8.62234616 233.13130832 7.87290909 231.63042912 7.12419701 230.12918854 C6.1064857 228.08883005 5.08635057 226.04970227 4.06556702 224.01087952 C3.49430619 222.86743608 2.92304537 221.72399263 2.33447361 220.54589939 C1.22933051 218.12999447 1.22933051 218.12999447 0 217 C-13.5058958 244.66513327 -26.91348643 272.36786634 -39.99291992 300.23754883 C-45.28734818 311.51205842 -50.6445711 322.75359931 -56 334 C-29.93 334 -3.86 334 23 334 C23 361.61221961 14.08641009 383.00471324 -5 403 C-5.53882813 403.61359375 -6.07765625 404.2271875 -6.6328125 404.859375 C-22.07493061 421.7758662 -47.40911835 430.08355123 -69.65415573 431.18013382 C-73.52603087 431.24355319 -77.39501954 431.24830815 -81.26708984 431.22705078 C-82.73711642 431.2264849 -84.20714355 431.22680666 -85.6771698 431.22793579 C-89.62048097 431.22850342 -93.56366741 431.21684607 -97.5069499 431.20278788 C-101.64554663 431.19018082 -105.78414704 431.18910223 -109.92276001 431.18673706 C-117.73862496 431.18055133 -125.55443314 431.16418038 -133.37027323 431.14403808 C-142.2773128 431.12158793 -151.18435525 431.11066285 -160.09141612 431.10064721 C-178.39430945 431.07981117 -196.69715014 431.04469249 -215 431 C-213.5652532 426.31472686 -211.64450251 422.00746787 -209.44581509 417.6427412 C-208.90590012 416.55900034 -208.90590012 416.55900034 -208.35507777 415.45336571 C-207.14646607 413.02983974 -205.93216702 410.60920924 -204.71788025 408.18852234 C-203.8420688 406.43531132 -202.96660761 404.68192531 -202.09146696 402.92837936 C-199.68438335 398.10779248 -197.27230695 393.28971877 -194.85941398 388.47203767 C-192.25870696 383.27719594 -189.6626067 378.08005271 -187.06593323 372.88319397 C-181.9784416 362.70316637 -176.8866762 352.52528215 -171.79346793 342.34811368 C-166.16679674 331.10462188 -160.54385918 319.85926481 -154.92131531 308.61370863 C-143.74105212 286.25227615 -132.55644945 263.8930168 -121.36966838 241.53484443 C-111.42413399 221.65740738 -101.48156157 201.77849176 -91.54174805 181.89819336 C-90.90321048 180.62107781 -90.26467289 179.34396228 -89.62613528 178.06684675 C-89.15262024 177.11978614 -89.15262024 177.11978614 -88.66953924 176.153593 C-87.08056705 172.97554783 -85.49159078 169.7975047 -83.90260983 166.61946392 C-83.58914884 165.99252523 -83.27568785 165.36558654 -82.95272804 164.71964971 C-74.65259296 148.1190147 -66.35049823 131.51935982 -58.04773432 114.92003947 C-57.45790891 113.7408294 -56.86808349 112.56161932 -56.26038458 111.34667561 C-55.0756162 108.97802987 -53.89084416 106.60938597 -52.70606841 104.24074393 C-48.57215284 95.97593475 -44.43902284 87.710733 -40.30613518 79.44540977 C-35.27455498 69.38292995 -30.24147065 59.32120412 -25.20647924 49.26043072 C-22.63527941 44.12266279 -20.06472257 38.98457581 -17.49587631 33.84563065 C-15.14820484 29.14919839 -12.79870887 24.45368383 -10.44769794 19.75892244 C-9.59374968 18.0528498 -8.74048691 16.34643386 -7.88794851 14.63965627 C-6.73657599 12.3348674 -5.58279131 10.03130285 -4.42834377 7.72805309 C-3.92295999 6.71420254 -3.92295999 6.71420254 -3.40736642 5.67987016 C-1.11415498 1.11415498 -1.11415498 1.11415498 0 0 Z " fill="#FEFEFE" transform="translate(228,19)"/>
<path d="M0 0 C2.04069098 1.89638595 4.05617778 3.81732681 6.0625 5.75 C6.93189209 6.586521 6.93189209 6.586521 7.81884766 7.43994141 C15.10760529 14.49477261 22.00643226 21.58747391 28.0625 29.75 C21.50842516 44.49666839 2.22611785 55.22389146 -12.39038086 60.85302734 C-21.63050199 64.21416501 -31.1214344 66.24385912 -40.9375 66.75 C-41.824375 66.80285156 -42.71125 66.85570312 -43.625 66.91015625 C-60.76504071 67.44578252 -76.90961279 62.51513401 -92 54.6875 C-98.73234595 51.21215385 -105.68385201 48.85445343 -112.9375 46.75 C-114.00484375 46.42773438 -115.0721875 46.10546875 -116.171875 45.7734375 C-146.48631952 38.15924604 -179.62874459 44.89072422 -206.16894531 60.64941406 C-233.85428855 77.87822788 -250.52225232 104.63537736 -258.97265625 135.53515625 C-265.94371693 166.36994094 -259.34222826 199.06910234 -242.9375 225.75 C-224.62308988 253.40116822 -197.44416608 271.58802004 -164.89453125 278.26171875 C-159.90536553 279.08555721 -154.98977217 279.55128131 -149.9375 279.75 C-148.63941406 279.80285156 -147.34132813 279.85570312 -146.00390625 279.91015625 C-124.35679781 280.50474629 -103.74924197 274.69716733 -84.70092773 264.53613281 C-63.48709554 253.53697119 -37.10882918 254.69492299 -14.875 261.5 C1.27083981 267.2570957 15.93418653 276.54188037 27.0625 289.75 C27.3925 290.74 27.7225 291.73 28.0625 292.75 C26.48867732 294.93940264 24.91682922 296.87691912 23.125 298.875 C22.61864014 299.4539502 22.11228027 300.03290039 21.59057617 300.62939453 C20.56537279 301.79906355 19.53585073 302.96496201 18.50195312 304.12695312 C17.26237769 305.52462908 16.0432116 306.94035778 14.828125 308.359375 C11.19242768 312.57678389 7.41911932 316.37096793 3.16015625 319.95703125 C1.71921093 321.18867725 0.31136467 322.45978843 -1.06640625 323.76171875 C-23.15383505 344.57846637 -51.20945282 358.69355424 -79.9375 367.75 C-81.06913574 368.10771484 -81.06913574 368.10771484 -82.22363281 368.47265625 C-123.27485544 381.10380167 -166.9726173 379.39950827 -207.9375 367.75 C-208.70465332 367.54117187 -209.47180664 367.33234375 -210.26220703 367.1171875 C-217.47983559 365.11922804 -221.49856144 363.98092652 -225.47662926 357.38245964 C-228.25156671 352.38207826 -230.68013619 347.20984353 -233.13840044 342.04890335 C-240.46268909 326.6938919 -248.04900376 311.47420148 -255.72143555 296.29077148 C-256.24688103 295.25063876 -256.77232652 294.21050604 -257.3136946 293.13885415 C-259.51174527 288.78838048 -261.71041809 284.43822231 -263.91015488 280.08860093 C-268.01918824 271.96294227 -272.11875357 263.83255322 -276.21260071 255.69923401 C-276.51257716 255.10330238 -276.81255361 254.50737074 -277.12162026 253.89338057 C-279.88949532 248.39462521 -282.65680148 242.8955836 -285.42392671 237.39645088 C-287.29732523 233.67354924 -289.17108223 229.95082821 -291.04516602 226.22827148 C-291.35607289 225.61069558 -291.66697977 224.99311968 -291.98730806 224.35682935 C-297.06565295 214.2707628 -302.16246263 204.19412661 -307.2652879 194.12042784 C-312.54106756 183.70413895 -317.79505692 173.27707376 -323.03054649 162.84047562 C-325.95667018 157.00928468 -328.8925166 151.18347686 -331.85260582 145.36944389 C-334.62251277 139.92845206 -337.36602285 134.47496617 -340.08974838 129.01071739 C-341.0918447 127.0119701 -342.1035444 125.01800409 -343.12553215 123.0293541 C-344.52007581 120.31227883 -345.87887552 117.58002471 -347.23027039 114.84129333 C-347.84611206 113.67180284 -347.84611206 113.67180284 -348.47439498 112.47868627 C-351.39841017 106.40818244 -350.86574433 102.11154396 -348.9375 95.75 C-348.52443604 94.35950439 -348.52443604 94.35950439 -348.10302734 92.94091797 C-347.69238037 91.85254639 -347.69238037 91.85254639 -347.2734375 90.7421875 C-346.96019531 89.90888916 -346.64695312 89.07559082 -346.32421875 88.21704102 C-345.82341797 86.93398071 -345.82341797 86.93398071 -345.3125 85.625 C-344.96058594 84.71484131 -344.60867188 83.80468262 -344.24609375 82.86694336 C-340.97004635 74.55513893 -337.18389463 66.60478415 -332.9375 58.75 C-332.61813477 58.1513916 -332.29876953 57.5527832 -331.96972656 56.93603516 C-313.16778898 21.91861942 -284.04902531 -6.27801022 -249.9375 -26.25 C-248.98665527 -26.81581787 -248.98665527 -26.81581787 -248.01660156 -27.39306641 C-223.48720722 -41.821754 -194.25996926 -50.73462499 -165.9375 -53.25 C-164.74769531 -53.35957031 -163.55789063 -53.46914063 -162.33203125 -53.58203125 C-103.16289793 -58.2582009 -44.25453456 -40.02302528 0 0 Z " fill="#FEFEFE" transform="translate(708.9375,70.25)"/>
</svg>
